<?xml version="1.0" standalone="no"?><!DOCTYPE svg PUBLIC "-//W3C//DTD SVG 1.1//EN" "http://www.w3.org/Graphics/SVG/1.1/DTD/svg11.dtd"><svg class="icon" width="200px" height="200.00px" viewBox="0 0 1024 1024" version="1.1" xmlns="http://www.w3.org/2000/svg"><path fill="#000000" d="M1024 524.946286c0 114.541714-32.804571 217.014857-97.901714 308.48-65.097143 91.428571-149.138286 154.477714-252.16 189.659428-11.776 2.121143-20.992 0.512-26.112-4.754285a26.550857 26.550857 0 0 1-8.228572-20.48v-143.981715c0-44.105143-11.776-76.690286-34.816-97.170285a457.947429 457.947429 0 0 0 68.132572-12.141715 251.136 251.136 0 0 0 62.537143-26.697143c21.540571-12.653714 39.460571-27.428571 53.833142-45.238857 14.336-17.846857 26.112-42.057143 35.328-72.009143 9.252571-29.988571 13.860571-64.073143 13.860572-102.985142 0-55.186286-17.408-101.924571-52.809143-140.8 16.420571-41.545143 14.884571-87.771429-5.12-139.264-12.288-4.242286-30.208-1.572571-53.796571 7.314285a340.845714 340.845714 0 0 0-61.513143 29.988572l-25.124572 16.274285A455.277714 455.277714 0 0 0 512 253.293714c-44.068571 0-86.601143 5.778286-128.109714 17.846857a506.514286 506.514286 0 0 0-28.196572-18.395428c-11.812571-7.314286-30.244571-16.274286-55.881143-26.258286-25.088-10.496-44.580571-13.165714-57.417142-9.472-19.456 51.492571-20.992 97.755429-4.608 139.264-34.852571 39.424-52.772571 86.162286-52.772572 141.348572 0 38.912 4.608 73.033143 13.860572 102.473142 9.179429 29.44 20.992 53.613714 34.852571 71.972572 14.336 18.395429 32.256 33.645714 53.796571 45.750857 21.540571 12.068571 42.532571 20.992 62.537143 26.733714 19.968 5.302857 43.044571 9.508571 68.169143 12.141715-17.956571 16.237714-28.708571 39.899429-32.804571 70.4-9.252571 4.754286-19.492571 7.899429-30.244572 9.947428a198.765714 198.765714 0 0 1-37.924571 3.181714c-14.884571 0-29.220571-4.754286-43.593143-14.701714-14.336-9.984-26.624-24.210286-36.864-42.569143a113.152 113.152 0 0 0-32.292571-35.730285c-12.836571-9.435429-24.100571-14.738286-32.804572-16.310858l-13.312-2.121142c-9.252571 0-15.908571 1.097143-19.492571 3.181714-3.584 2.084571-4.608 4.717714-3.072 7.862857 1.536 3.145143 3.584 6.326857 6.144 9.508571 2.56 3.108571 5.632 5.741714 8.704 8.374858l4.608 3.145142c9.764571 4.754286 19.492571 13.165714 29.220571 25.746286 9.764571 12.617143 16.420571 24.210286 21.028572 34.706286l6.656 15.725714c5.632 17.371429 15.36 31.561143 29.220571 42.057143 13.824 10.532571 28.672 17.371429 44.580571 20.48 15.872 3.181714 31.268571 4.754286 46.116572 4.754286 14.848 0 27.172571-0.512 36.900571-2.633143l15.396572-2.633143c0 17.334857 0 37.851429 0.475428 60.964571 0 23.149714 0.548571 35.766857 0.548572 36.790858 0 8.411429-3.072 15.250286-8.740572 20.48-5.632 5.266286-14.848 6.838857-26.624 4.754285-103.021714-35.254857-187.062857-98.267429-252.16-189.732571C32.292571 742.034286 0 638.976 0 524.946286c0-95.085714 23.076571-182.857143 68.681143-263.277715a515.437714 515.437714 0 0 1 186.550857-191.268571C333.641143 23.661714 419.218286 0 512 0s178.358857 23.661714 256.768 70.4c78.409143 46.774857 140.434286 110.372571 186.550857 191.268571C1000.923429 341.577143 1024 429.860571 1024 524.946286" /></svg>