<?xml version="1.0" standalone="no"?><!DOCTYPE svg PUBLIC "-//W3C//DTD SVG 1.1//EN" "http://www.w3.org/Graphics/SVG/1.1/DTD/svg11.dtd"><svg class="icon" width="200px" height="200.00px" viewBox="0 0 1024 1024" version="1.1" xmlns="http://www.w3.org/2000/svg"><path fill="#d81e06" d="M704.64 529.312c19.424-5.056 19.424-5.056 36.8 5.632 9.92 15.968 9.92 15.968 9.728 20.256 0.224 3.296 0.224 3.296 0.192 5.408-0.064 2.208-0.288 4.64-0.64 7.328a273.024 273.024 0 0 1-10.016 43.008 402.688 402.688 0 0 1-76.928 140.896c-11.616 13.696-15.296 23.584-14.528 29.12a3.328 3.328 0 0 0 2.24 2.912c7.68 3.136 27.52-2.656 50.112-15.616 69.696-39.968 157.792-174.144 162.4-245.6V416a32 32 0 0 1 64 0l-0.064 108.704c-6.08 95.52-106.624 248.704-194.496 299.072-38.912 22.304-73.92 32.544-106.208 19.328-49.12-20.096-57.376-79.456-12.288-132.64 14.56-17.184 27.008-35.52 37.408-54.4-4.672 2.56-9.536 4.608-14.848 6.208-28.64 8.64-55.744-3.328-77.536-32.288-25.088-33.28-18.08-57.664 23.68-155.2a2333.824 2333.824 0 0 0 9.92-23.616c18.976-46.304 44.48-72.096 106.4-119.744 15.2-11.712 21.76-16.864 29.44-23.264 14.272-11.808 11.296-49.824-18.72-115.36a243.904 243.904 0 0 0-75.136 18.464c-28.8 12.064-61.856 40.736-98.08 86.432a32 32 0 0 1-51.392-1.664c-61.952-89.536-129.792-115.712-211.2-84.416-67.168 25.824-123.52 127.52-113.696 235.008 12.96 142.176 129.056 279.936 364.576 388.32a32 32 0 0 1-26.752 58.112c-254.72-117.216-386.304-273.28-401.6-440.608C85.12 317.664 156.768 188.48 251.968 151.872c99.2-38.144 188.32-11.776 261.728 74.944 33.024-36.256 65.216-61.184 97.152-74.56A306.944 306.944 0 0 1 730.496 128a32 32 0 0 1 28.64 17.76c50.336 101.408 58.336 172.544 11.2 211.68-8.512 7.04-15.52 12.544-30.72 24.224-53.76 41.408-73.568 61.408-86.816 93.76a1208.8 1208.8 0 0 1-10.336 24.576c-17.696 41.344-22.432 53.12-26.976 68.96-4.288 14.912-4.352 22.592-4.416 22.528 6.944 9.216 7.776 9.6 7.936 9.536 3.616-1.12 10.368-6.784 21.536-19.072l6.88-7.648c2.88-3.2 5.152-5.632 7.424-7.968 11.52-11.936 24.544-21.408 39.04-28.32 1.632-2.24 3.264-3.392 10.784-8.704z"  /></svg>