<svg width="30" height="24" viewBox="0 0 30 30" fill="none" xmlns="http://www.w3.org/2000/svg">
<g clip-path="url(#clip1)">
<path fill-rule="evenodd" clip-rule="evenodd" d="M15.0737 5.80396H15.0757L18.706 2.91722L15.0757 0.00406298L15.0717 0L11.4475 2.91112L15.0717 5.80193L15.0737 5.80396ZM15.0757 14.9111L15.0778 14.9091L24.4429 7.52057L21.9036 5.48096L15.0778 10.8664L15.0757 10.8685L15.0737 10.8705L8.2479 5.48502L5.71057 7.52463L15.0737 14.9132L15.0757 14.9111ZM15.0716 19.9614L15.0757 19.9593L27.614 10.066L30.1534 12.1056L24.449 16.6053L15.0757 24L0.243779 12.3047L0 12.1117L2.53936 10.0721L15.0716 19.9614Z" fill="#1E80FF"/>
</g>
<defs>
<clipPath id="clip1">
<rect width="30" height="30" fill="white"/>
</clipPath>
</defs>
</svg>
