<?xml version="1.0" standalone="no"?><!DOCTYPE svg PUBLIC "-//W3C//DTD SVG 1.1//EN" "http://www.w3.org/Graphics/SVG/1.1/DTD/svg11.dtd"><svg class="icon" width="30px" height="30.00px" viewBox="0 0 1024 1024" version="1.1" xmlns="http://www.w3.org/2000/svg"><path fill="#1296db" d="M512 73.28A438.72 438.72 0 1 0 950.72 512 438.72 438.72 0 0 0 512 73.28z m-98.56 458.88l-16.8 66.88 23.68-20.8s53.92 61.28 64 76.48 1.44 68.96 1.44 68.96l-92.48-113.12s-29.12 101.12-68.48 124.16a97.6 97.6 0 0 1-80 6.56 342.08 342.08 0 0 0 85.44-89.76 382.88 382.88 0 0 0 39.52-119.36h-115.04s8.8-40.48 24.16-41.6 90.88 0 90.88 0l-1.76-124.8-43.2 2.24a96 96 0 0 1-32 48c-24.16 17.44-38.4 10.88-38.4 10.88s42.72-118.24 55.84-141.28 50.4-25.12 50.4-25.12l-23.04 66.72h147.84c17.6 0 18.56 40.64 18.56 40.64h-90.56v122.56s61.28-2.24 81.12 0 19.68 41.6 19.68 41.6z m329.44 160h-91.52l-65.12 46.24-13.6-46.24h-36.96v-368h208z"  /><path fill="#1296db" d="M602.88 691.68l54.88-41.44h43.04V364.64h-121.12v285.6h11.2l12 41.44z"  /></svg>